<svg width="124" height="124" viewBox="0 0 124 124" fill="none" xmlns="http://www.w3.org/2000/svg">
<path d="M10.0874 79.0792L10.3075 79.7048C10.7605 80.9926 11.8074 81.9825 13.1185 82.3627C13.7659 82.5505 14.4487 82.5807 15.1101 82.451L20.8838 81.3185C22.6897 80.9643 24.5258 80.7859 26.3662 80.7859H46.9189C55.7153 81.6663 64.5928 81.2707 73.276 79.6113L80.711 78.1905L98.2473 74.4257C99.3025 74.1991 100.389 74.1587 101.458 74.3061L108.235 75.2409C110.221 75.5147 111.991 73.972 111.991 71.9677C111.991 71.4312 111.877 70.8835 111.409 70.622C105.08 67.0899 55.4003 72.4104 39.7687 72.7517C30.7661 72.9483 24.1225 71.3477 19.5969 69.3987C16.2646 67.9635 11.1249 69.3274 9.99938 72.7767C9.85058 73.2327 9.77478 73.7093 9.77478 74.189V77.2483C9.77478 77.8719 9.88048 78.491 10.0874 79.0792Z" fill="white" stroke="white" stroke-linecap="round"/>
<path d="M114.149 76.9136C113.799 74.7841 112.986 73.0208 111.141 71.9924C99.6659 65.5935 83.2192 76.8384 64.4673 77.7995C45.7154 78.7606 7.7607 70.5358 11.4176 82.8191C15.0746 95.1025 48.4011 96.4802 72.8879 94.3348C88.5161 92.9655 103.418 89.0592 108.134 85.6734C112.85 82.2876 114.632 79.8531 114.149 76.9136Z" stroke="white" stroke-width="4"/>
<path d="M15.2207 77.8535C5.60573 69.8667 11.2855 27.2556 57.7223 21.6509C104.159 16.0461 121.905 67.5201 111.293 74.5021" stroke="white" stroke-width="4" stroke-linecap="round"/>
<path d="M12.009 80.7478L13.2958 82.0856C14.047 82.8666 15.3497 82.64 15.7931 81.6513V81.6513C16.0396 81.1015 16.5859 80.7478 17.1883 80.7478H19.0329L26.414 80.3234L62.4189 80.7478V80.7478C69.1917 80.4659 75.9086 79.3964 82.434 77.5611L86.8558 76.3174L97.4749 73.4538C98.6401 73.1396 99.8801 73.2642 100.959 73.8039V73.8039" stroke="white" stroke-width="4" stroke-linecap="round"/>
<path d="M82.947 42.5271L76.861 35.9756C75.3624 34.3623 76.9415 31.8004 79.0562 32.4142C79.2528 32.4713 79.4565 32.5003 79.6612 32.5003L83.4048 32.5003C88.0542 32.5003 92.2711 35.2283 94.1771 39.4691L94.5704 40.3441C94.6753 40.5775 94.8063 40.7982 94.961 41.0021C97.0273 43.7254 94.2108 47.4453 91.0291 46.195L84.6509 43.6886C84.003 43.4341 83.4207 43.0371 82.947 42.5271Z" stroke="white" stroke-width="4"/>
<path d="M103.502 46.5742C101.243 50.5908 98.9441 51.0064 98.8649 51.6989M105.761 52.5299L104.334 54.3305M107.782 57.1005L106.593 58.3471M110.874 62.7792L109.566 63.6103" stroke="white" stroke-width="4" stroke-linecap="round"/>
</svg>
